<svg width="135" height="138" viewBox="0 0 135 138" fill="none" xmlns="http://www.w3.org/2000/svg">
<path fill-rule="evenodd" clip-rule="evenodd" d="M96.4854 63.6531C96.4854 63.6531 105.421 97.7046 93.2161 105.282C81.0121 112.859 67.8069 97.9154 67.8069 97.9154L81.3384 66.0389L96.4854 63.6531Z" fill="black"/>
<path fill-rule="evenodd" clip-rule="evenodd" d="M87.7919 67.6273L101.104 65.604C105.776 64.8949 108.766 60.1147 107.395 55.4932C103.556 42.5534 92.4014 20.5179 61.3881 25.2298C18.0171 31.8201 22.3551 68.9367 23.5829 77.3846C24.8106 85.8318 34.7301 117.783 66.7424 112.918C88.2284 109.654 86.0421 83.0296 84.3111 72.524C83.9256 70.1803 85.4939 67.9769 87.7919 67.6273Z" fill="#004656"/>
<path fill-rule="evenodd" clip-rule="evenodd" d="M101.103 65.6052L98.2427 66.0391C95.3005 48.3329 84.9835 29.1241 62.8885 28.2938C55.0787 28.0017 48.889 28.9853 44.062 30.4857C48.7615 28.1098 54.4697 26.2813 61.3885 25.2302C92.3987 20.5175 103.559 42.5561 107.392 55.4967C108.77 60.112 105.781 64.8937 101.103 65.6052ZM45.6343 64.6641C48.9141 60.14 55.1586 59.1908 59.5828 62.5442C64.0071 65.8976 64.9348 72.284 61.6558 76.8088C58.3761 81.3322 52.1316 82.2813 47.7073 78.9279C43.2831 75.5737 42.3546 69.1882 45.6343 64.6641Z" fill="#24B14C"/>
<path fill-rule="evenodd" clip-rule="evenodd" d="M69.4794 48.8918C57.6819 39.9494 41.0282 42.4794 32.2832 54.5436C25.7199 63.5995 25.4634 75.3862 30.7899 84.6353C31.0862 85.149 31.5572 85.7086 32.1054 86.1249C34.3179 87.8024 37.4402 87.3278 39.0804 85.0662C40.3134 83.3642 40.3547 81.1378 39.3594 79.4235L39.3617 79.422C36.0429 73.7103 36.1832 66.2867 40.2939 60.6164C45.7599 53.0755 56.1677 51.4946 63.5417 57.0836C70.9157 62.6734 72.4622 73.3155 66.9954 80.8564C62.8854 86.5274 55.9794 88.8228 49.6704 87.2374L49.6697 87.2397C47.7774 86.7628 45.7059 87.452 44.4729 89.1533C42.8334 91.4149 43.2969 94.6089 45.5094 96.2848C46.0577 96.7011 46.7192 96.9986 47.2862 97.1396C57.4892 99.6612 68.4429 95.9835 75.0069 86.9284C83.7519 74.8641 81.2769 57.8342 69.4794 48.8918Z" fill="#24B14C"/>
<path fill-rule="evenodd" clip-rule="evenodd" d="M67.7173 61.5225L107.395 55.4934C107.395 55.4934 115.448 82.4448 108.653 100.511C107.753 102.903 105.117 104.088 102.779 103.162C95.1913 100.162 78.1978 93.1628 66.0043 86.0481C49.859 76.6296 52.2276 63.8761 67.7173 61.5225Z" fill="#33BDDD"/>
<path fill-rule="evenodd" clip-rule="evenodd" d="M101.103 65.6051L87.7923 67.6275C85.4898 67.9779 83.9208 70.1805 84.3145 72.5265C85.168 77.7506 86.1475 86.9598 84.268 95.3073C78.0753 92.4921 71.5405 89.2874 66.004 86.0482C49.8595 76.6297 52.228 63.8793 67.7178 61.5256L107.392 55.4966C107.392 55.4966 107.41 55.5479 107.436 55.6522C108.701 60.22 105.729 64.902 101.103 65.6051Z" fill="#006880"/>
<path fill-rule="evenodd" clip-rule="evenodd" d="M61.6539 76.8123C60.7134 78.1095 59.5389 79.1084 58.2361 79.803C52.9426 73.5164 54.2229 67.0733 60.8184 63.6532C64.1476 67.173 64.5991 72.7489 61.6539 76.8123ZM75.0078 86.9249C74.287 87.92 73.5138 88.8469 72.6903 89.7163L72.6798 89.7186C70.351 88.5065 68.1153 87.2822 66.004 86.0478C65.1048 85.5265 64.2663 84.9852 63.4795 84.4355C64.792 83.4481 65.98 82.2528 66.9918 80.8583C71.2293 75.0117 71.2503 67.3136 67.6248 61.5398L78.0543 59.9543C81.691 68.5655 80.8645 78.858 75.0078 86.9249Z" fill="#008AAA"/>
<path fill-rule="evenodd" clip-rule="evenodd" d="M68.3567 64.3811C72.6865 63.7233 77.0162 63.0655 81.3459 62.4077C88.2144 61.3635 95.0829 60.32 101.951 59.2766C103.539 59.0351 105.127 58.7936 106.715 58.5521C107.69 58.4042 108.228 57.1445 107.99 56.2567C107.702 55.188 106.723 54.8047 105.744 54.9534C101.414 55.6112 97.0847 56.269 92.7549 56.9268L72.1487 60.0579C70.561 60.2994 68.9739 60.5401 67.3862 60.7823C66.4097 60.9303 65.8719 62.1907 66.1104 63.0778C66.3984 64.1465 67.3772 64.5298 68.3567 64.3811Z" fill="black"/>
<path fill-rule="evenodd" clip-rule="evenodd" d="M97.0988 100.872C93.393 99.3451 88.9245 97.4346 84.258 95.3094C86.1473 86.9719 85.1768 77.7597 84.3098 72.5279C83.9235 70.1796 85.4895 67.9801 87.7973 67.6282L97.0883 66.2075C98.5815 72.9343 101.984 91.3381 97.0988 100.872Z" fill="#004656"/>
</svg>
