<svg width="123" height="130" viewBox="0 0 123 130" fill="none" xmlns="http://www.w3.org/2000/svg">
<path fill-rule="evenodd" clip-rule="evenodd" d="M84.7481 110.438L41.4767 109.159C38.6033 109.074 36.3018 106.626 36.2533 103.604L35.0957 31.6362C35.0452 28.4771 37.4662 25.8879 40.4708 25.8879H87.1972C90.2353 25.8879 92.6693 28.5332 92.5695 31.7267L90.2715 104.974C90.1738 108.084 87.7056 110.525 84.7481 110.438Z" fill="#007D00"/>
<path fill-rule="evenodd" clip-rule="evenodd" d="M79.9494 52.5777C79.9494 61.6245 72.9753 68.958 64.3735 68.958C55.771 68.958 48.7976 61.6245 48.7976 52.5777C48.7976 43.531 55.771 36.1975 64.3735 36.1975C72.9753 36.1975 79.9494 43.531 79.9494 52.5777Z" fill="#00CF00"/>
<path fill-rule="evenodd" clip-rule="evenodd" d="M50.4087 78.3795H71.7061H74.708C76.2066 78.3795 76.2093 75.9304 74.708 75.9304H53.4099H50.4087C48.9101 75.9304 48.9074 78.3795 50.4087 78.3795ZM45.7358 86.052H57.1064H75.2264H79.3811C80.8796 86.052 80.8817 83.603 79.3811 83.603H68.0104H49.8904H45.7358C44.2372 83.603 44.2345 86.052 45.7358 86.052Z" fill="white"/>
<path fill-rule="evenodd" clip-rule="evenodd" d="M52.5505 100.586L53.6672 100.543L53.3989 92.6113L52.2793 92.6201L52.5505 100.586Z" fill="black"/>
<path fill-rule="evenodd" clip-rule="evenodd" d="M54.5168 92.6041L54.7838 100.502L57.0188 100.417L56.7532 92.5879L54.5168 92.6041Z" fill="black"/>
<path fill-rule="evenodd" clip-rule="evenodd" d="M57.8716 92.579L58.1372 100.377L62.6057 100.208L62.3457 92.5466L57.8716 92.579Z" fill="black"/>
<path fill-rule="evenodd" clip-rule="evenodd" d="M63.4639 92.5379L63.7224 100.165L65.956 100.083L65.7002 92.5217L63.4639 92.5379Z" fill="black"/>
<path fill-rule="evenodd" clip-rule="evenodd" d="M69.0562 92.4966L69.3077 99.9564L71.5427 99.8726L71.2925 92.4805L69.0562 92.4966Z" fill="black"/>
<path fill-rule="evenodd" clip-rule="evenodd" d="M72.4106 92.4717L72.6608 99.8316L74.8944 99.7478L74.647 92.4556L72.4106 92.4717Z" fill="black"/>
<path fill-rule="evenodd" clip-rule="evenodd" d="M50.8674 92.6423L51.0725 100.64L51.6223 100.621L51.3404 92.6556L50.8674 92.6423Z" fill="black"/>
<path fill-rule="evenodd" clip-rule="evenodd" d="M66.8184 92.513L67.0741 100.04L68.1909 99.9977L67.9379 92.5042L66.8184 92.513Z" fill="black"/>
<path fill-rule="evenodd" clip-rule="evenodd" d="M67.795 56.863C69.1186 55.6981 69.9782 53.9698 69.9782 52.0123C69.9782 48.504 67.2736 45.6597 63.9383 45.6597C60.6022 45.6597 57.8976 48.504 57.8976 52.0123C57.8976 53.9698 58.7572 55.6981 60.0808 56.863C57.7602 58.2693 56.1934 60.8987 56.1934 63.9184V66.4982C58.5727 68.0476 61.3689 68.9581 64.3735 68.9581C67.016 68.9581 69.5026 68.2603 71.6825 67.0393V63.9184C71.6825 60.8987 70.1163 58.2693 67.795 56.863Z" fill="white"/>
<path fill-rule="evenodd" clip-rule="evenodd" d="M42.8279 28.5497H57.2209H80.1468H85.3873C87.5281 28.5497 87.5316 25.0508 85.3873 25.0508H70.9942H48.0684H42.8279C40.687 25.0508 40.6836 28.5497 42.8279 28.5497Z" fill="black"/>
<path fill-rule="evenodd" clip-rule="evenodd" d="M70.2725 31.194H58.4734C58.3046 31.194 58.168 31.0502 58.168 30.8727V17.842C58.168 16.7317 59.0242 15.8313 60.0799 15.8313H68.6674C69.7231 15.8313 70.5794 16.7317 70.5794 17.842V30.8713C70.5794 31.0495 70.442 31.194 70.2725 31.194Z" fill="#A3A3A3"/>
</svg>
