<svg width="118" height="122" viewBox="0 0 118 122" fill="none" xmlns="http://www.w3.org/2000/svg">
<g clip-path="url(#clip0_41_568)">
<path fill-rule="evenodd" clip-rule="evenodd" d="M94.0419 98.9609H28.2477C26.8445 98.9609 25.7062 97.811 25.7062 96.3919V47.5547H96.5842V96.3919C96.5842 97.811 95.4459 98.9609 94.0419 98.9609Z" fill="#E7E7E7"/>
<path fill-rule="evenodd" clip-rule="evenodd" d="M87.1754 98.9606H35.1147V68.6697C35.1147 67.8642 35.7608 67.2112 36.5577 67.2112H85.7317C86.5294 67.2112 87.1754 67.8642 87.1754 68.6697V98.9606Z" fill="#38CFE8"/>
<path fill-rule="evenodd" clip-rule="evenodd" d="M36.1449 13.2749H87.5213C89.4131 13.2749 91.0989 14.4805 91.7265 16.2827L101.531 36.2272C102.258 38.3172 102.63 40.5157 102.63 42.7306V49.7948C102.63 55.4206 98.1113 59.9813 92.5389 59.9813C86.9657 59.9813 82.4477 55.4206 82.4477 49.7948C82.4477 55.4206 77.9305 59.9813 72.3573 59.9813H71.9739C65.8025 59.9813 60.8004 54.9312 60.8004 48.7015V45.1798V49.7948C60.8004 55.4206 56.2824 59.9813 50.7092 59.9813C44.8027 59.9813 40.0147 55.1476 40.0147 49.1849V45.7897V49.7948C40.0147 55.4206 35.4974 59.9813 29.9235 59.9813H29.7513C24.1781 59.9813 19.6609 55.4206 19.6609 49.7948V45.3776C19.6609 42.5506 20.2657 39.7578 21.4342 37.1896L32.0949 15.8959C32.8219 14.2991 34.404 13.2749 36.1449 13.2749Z" fill="#BE1C7B"/>
<path fill-rule="evenodd" clip-rule="evenodd" d="M48.941 13.2747L40.0146 45.7888V49.1855C40.0146 55.1475 44.8027 59.9819 50.7092 59.9819C56.2824 59.9819 60.8004 55.4212 60.8004 49.7946V48.7013V45.1796L64.0424 13.2747H48.941ZM91.7262 16.2832C91.0985 14.4803 89.4127 13.2747 87.5209 13.2747H76.8418L82.4481 45.6154V49.7946C82.4481 55.4211 86.9653 59.9818 92.5385 59.9818C98.1117 59.9818 102.629 55.4211 102.629 49.7946V42.7311C102.629 40.5162 102.258 38.3169 101.53 36.2277L91.7262 16.2832Z" fill="#E8208E"/>
<path fill-rule="evenodd" clip-rule="evenodd" d="M55.8365 70.4374V94.8155C55.8365 96.7634 58.8314 96.7671 58.8314 94.8155V70.4374C58.8314 68.4895 55.8365 68.4858 55.8365 70.4374Z" fill="#00AFDA"/>
<path fill-rule="evenodd" clip-rule="evenodd" d="M76.9327 75.6953C73.6605 78.0998 70.3882 80.5052 67.1167 82.909C66.4633 83.3894 66.1418 84.2254 66.5789 84.9803C66.9563 85.6319 67.9703 86.0067 68.6281 85.5233C71.9004 83.1187 75.1719 80.7141 78.4448 78.3096C79.0975 77.8291 79.4191 76.9939 78.982 76.2382C78.6045 75.5867 77.5905 75.2126 76.9327 75.6953ZM75.783 85.6045C75.73 85.6469 75.677 85.6878 75.624 85.7294C75.7248 85.6506 75.8264 85.5718 75.9272 85.4929C74.8301 86.3483 73.6726 87.121 72.4636 87.806C72.1391 87.9897 71.8735 88.3497 71.7756 88.7104C71.6763 89.0726 71.7212 89.5553 71.9265 89.8766C72.3724 90.5765 73.2436 90.8338 73.975 90.4203C75.3569 89.6371 76.6542 88.7312 77.9007 87.745C78.1818 87.5234 78.3392 87.0161 78.3392 86.6748C78.3392 86.3036 78.1759 85.8603 77.9007 85.6045C77.6152 85.3405 77.2407 85.1434 76.8418 85.1612C76.7094 85.1798 76.5762 85.1969 76.4438 85.2155C76.1899 85.2869 75.9699 85.4171 75.783 85.6045Z" fill="#A5E8F4"/>
<path fill-rule="evenodd" clip-rule="evenodd" d="M34.4559 101.741C40.8252 101.79 47.199 101.651 53.5683 101.575C62.2128 101.474 70.8581 101.359 79.5026 101.275C82.3561 101.247 85.2112 101.204 88.064 101.227C90.3701 101.244 90.373 97.6239 88.064 97.6053C81.6954 97.5554 75.3209 97.6952 68.9523 97.7696C60.307 97.8723 51.6625 97.9861 43.0172 98.0708C40.1637 98.0991 37.3094 98.1415 34.4559 98.1192C32.1498 98.1006 32.1476 101.723 34.4559 101.741ZM52.4506 84.9116C52.2975 82.7391 49.7022 82.8893 49.0996 84.2496C48.9649 84.507 48.898 85.485 48.8936 85.8524C48.8737 87.3027 48.6691 87.9491 49.8119 88.9078C50.5175 89.4991 51.7802 89.0654 52.1562 88.2257C52.6132 87.2038 52.5286 86.022 52.4506 84.9116Z" fill="black"/>
</g>
<defs>
<clipPath id="clip0_41_568">
<rect width="117" height="122" fill="white" transform="translate(0.5)"/>
</clipPath>
</defs>
</svg>
